<svg xmlns="http://www.w3.org/2000/svg" viewBox="0 0 200 200" stroke="currentcolor">
<g><path d="M84.33420135269004 9.953208205853613 C95.09523298902937 6.445399335338799, 108.73356917483554 7.858687088682828, 120.46229654014019 10.536384874056594 C132.19102390544484 13.21408265943036, 145.07180771017605 18.53970950681557, 154.70656554451796 26.01939491809621 C164.34132337885987 33.49908032937685, 172.67258042048485 44.720885049442074, 178.27084354619163 55.414497341740436 C183.8691066718984 66.1081096340388, 187.33979514212564 78.09752097379733, 188.29614429875858 90.18106867188638 C189.25249345539152 102.26461636997543, 187.45455069323737 116.34559033918882, 184.00893848598932 127.9157835302747 C180.56332627874127 139.48597672136057, 175.17544476307017 150.34227402384326, 167.62247105527024 159.60222781840164 C160.0694973474703 168.86218161296003, 149.3809616844929 178.25452777455894, 138.6910962391898 183.47550629762503 C128.0012307938867 188.69648482069113, 115.43970342506017 190.73077123280075, 103.4832783834516 190.92809895679818 C91.52685334184304 191.1254266807956, 77.86593798147285 188.9426899572221, 66.95254598953841 184.65947264160954 C56.03915399760397 180.376255325997, 46.36023783219909 173.62059695796367, 38.00292643184495 165.2287950631229 C29.645615031490806 156.83699316828213, 21.249373690881576 145.7954802218769, 16.808677587413555 134.30866127256488 C12.367981483945535 122.82184232325287, 10.747836892389065 108.66238567339222, 11.35874981103683 96.30788136725084 C11.969662729684595 83.95337706110946, 15.543548872840493 70.97205032449793, 20.474155099300148 60.18163543571661 C25.404761325759804 49.39122054693528, 32.146448015961354 39.45221669583159, 40.94238716979476 31.565392034562876 C49.73832632362817 23.678567373294165, 65.32596483193532 16.736823393572834, 73.24979002230062 12.86068746810433 C81.17361521266591 8.984551542635828, 85.23142218297951 8.682185404179116, 88.4853383119865 8.308576481751857 C91.73925444099348 7.934967559324598, 92.39121636738219 8.893033183703649, 92.77328679634252 10.619033933540777 M111.4248612091412 8.145521581299093 C122.50661233322654 8.166419938483678, 134.85468203176939 14.897618256848027, 144.790056375762 20.993474996770374 C154.7254307197546 27.08933173669272, 164.09888358373797 34.79660174359489, 171.0371072730968 44.72066202083317 C177.97533096245564 54.64472229807144, 183.46503156325988 68.63972939897238, 186.41939851191495 80.53783666020003 C189.37376546057 92.43594392142768, 190.75577541307229 104.27908832145239, 188.76330896502722 116.1093055881991 C186.77084251698216 127.93952285494582, 181.56360635867514 141.2567343342603, 174.46459982364453 151.51914026068033 C167.36559328861392 161.78154618710036, 156.470470765584 171.16713031675482, 146.16926975484355 177.68374114671929 C135.8680687441031 184.20035197668375, 124.04788457104296 188.71818153089907, 112.65739375920187 190.6188052404671 C101.26690294736078 192.51942895003515, 89.12813433298534 192.39292126065732, 77.82632488379704 189.08748340412748 C66.52451543460874 185.78204554759765, 54.246802684618146 178.3770003797097, 44.846537064072095 170.7861781012881 C35.446271443526044 163.1953558228665, 27.14164520461451 154.03476203601033, 21.42473116052075 143.54254973359787 C15.707817116426991 133.0503374311854, 11.300085949706395 120.10435453698918, 10.545052799509548 107.83290428681329 C9.790019649312702 95.5614540366374, 12.875927655730486 81.67466271296257, 16.89453225933967 69.91384823254252 C20.913136862948853 58.153033752122475, 26.955240286505944 46.255328343856036, 34.65668042116465 37.26801740429302 C42.35812055582336 28.280706464730002, 52.20805747150129 20.64906731253212, 63.10317306729191 15.989982595164435 C73.99828866308253 11.330897877796748, 92.20395820765566 10.666027083168627, 100.02737399590838 9.313509100086904 C107.8507897841611 7.9609911170051815, 108.42176519195897 7.778821557588309, 110.04366779680825 7.874874696674098 C111.66557040165753 7.970927835759888, 109.73530478219527 8.00566767949561, 109.7587896250041 9.889827934601641" stroke="currentColor" stroke-width="9" fill="none"></path></g><g><path d="M39.0066434000835 52.90062868042573 C52.91625453645424 80.76311176424028, 55.44107449133172 110.67274441739366, 71.91128545924195 153.30711372375922 M38.42870114099101 55.38351679693567 C53.131095131267436 89.5365966492895, 63.60925834946315 126.16105162668498, 69.50229611095237 153.00876612064735 M70.06098362604475 153.31672053332687 C76.70117221079417 139.852254329469, 86.31815855594311 130.4396936323399, 98.60802560174511 91.69702310246734 M70.69694979275828 154.99615063835924 C81.35477592474777 131.9236349104547, 93.6045500435936 109.26764021203742, 99.62941549172112 96.13987825831867 M99.07156320382116 97.60974106581403 C106.57204899324387 116.22450997631728, 116.79404794406213 134.50402562639835, 126.34936113928538 151.69704967088492 M101.0616964133457 95.4549358641026 C108.33985242517939 107.17045424893644, 111.9808481815272 118.16357040374169, 129.25458156514372 153.66849098006014 M131.4279316711765 158.00419060363873 C140.5899128097833 119.49047167997426, 150.12452192995005 83.15946301271138, 159.4573461050797 57.199410125679734 M131.84635796267938 156.73151232017838 C141.1900185890237 114.9334176424172, 154.35751780867602 80.1589961070817, 158.2237704344058 53.23125930878389" stroke="currentColor" stroke-width="6" fill="none"></path></g><g><path d="M43.269452606807114 56.16575086843771 C48.23554007632711 82.57711970718715, 54.19883899299052 106.81084209817713, 68.61019721159731 155.15849777585302 M40.487477087001956 56.83043145047612 C48.26061452787636 86.35448854979057, 61.32976890026733 120.18139326952408, 69.1507519863508 155.35298283521635 M66.92226212940686 153.5386447478925 C80.64330107429035 135.74862953239642, 89.14524106035344 113.9202127084995, 100.93475592230062 97.19243165779453 M71.09059681820148 156.7008918158858 C83.70469108411987 132.33082710447104, 93.60052275962698 110.5601156229942, 100.41518892301741 94.65772909685556 M101.60088012669344 92.47593999649617 C110.54382255435539 121.70857499308448, 121.53506556868857 144.75215253762175, 127.11755630758144 151.38356104402598 M99.22927240492326 93.94961418261597 C108.2160651589156 113.71119870745625, 118.10723423421527 130.35630816695377, 128.11015511359997 156.47882517315972 M130.59604777574 154.57609911375442 C138.50458912594274 131.46607403478745, 146.72400748740347 111.99665572775834, 156.86129410584337 51.07734268661996 M131.09365419241595 155.7262934682844 C137.59309506543198 128.83540319982973, 145.23749677098536 107.76488730103836, 158.49414315499908 56.571814064249374" stroke="currentColor" stroke-width="6" fill="none"></path></g>
</svg>